<svg width="800" height="300" viewBox="0 0 800 300" fill="none" xmlns="http://www.w3.org/2000/svg">
  <!-- Background -->
  <rect width="800" height="300" rx="12" fill="#F8FAFC" />
  <rect x="1" y="1" width="798" height="298" rx="11" stroke="#E2E8F0" stroke-width="2"/>
  
  <!-- Grid Pattern -->
  <defs>
    <pattern id="grid" width="20" height="20" patternUnits="userSpaceOnUse">
      <circle cx="2" cy="2" r="1" fill="#CBD5E1" fill-opacity="0.5"/>
    </pattern>
  </defs>
  <rect width="800" height="300" fill="url(#grid)" />

  <!-- Reevit Center Node -->
  <g transform="translate(350, 110)">
    <rect x="0" y="0" width="100" height="80" rx="12" fill="white" stroke="#8B5CF6" stroke-width="2"/>
    <text x="50" y="45" font-family="sans-serif" font-size="14" font-weight="bold" fill="#1E293B" text-anchor="middle">Reevit</text>
    <text x="50" y="65" font-family="sans-serif" font-size="10" fill="#64748B" text-anchor="middle">Unified API</text>
  </g>

  <!-- Connection Lines -->
  <!-- Left side (User) -->
  <path d="M150 150 L350 150" stroke="#94A3B8" stroke-width="2" stroke-dasharray="4 4" marker-end="url(#arrow)"/>
  
  <!-- Right side (PSPs) -->
  <path d="M450 150 L550 80" stroke="#94A3B8" stroke-width="2"/>
  <path d="M450 150 L550 150" stroke="#94A3B8" stroke-width="2"/>
  <path d="M450 150 L550 220" stroke="#94A3B8" stroke-width="2"/>

  <!-- Markers -->
  <defs>
    <marker id="arrow" markerWidth="10" markerHeight="10" refX="9" refY="3" orient="auto" markerUnits="strokeWidth">
      <path d="M0,0 L0,6 L9,3 z" fill="#94A3B8" />
    </marker>
  </defs>

  <!-- User/Merchant Node -->
  <g transform="translate(50, 110)">
    <rect x="0" y="0" width="100" height="80" rx="8" fill="white" stroke="#E2E8F0" stroke-width="1"/>
    <text x="50" y="45" font-family="sans-serif" font-size="12" font-weight="600" fill="#1E293B" text-anchor="middle">Your App</text>
  </g>

  <!-- PSP Nodes -->
  <!-- Stripe -->
  <g transform="translate(550, 40)">
    <rect x="0" y="0" width="120" height="60" rx="8" fill="white" stroke="#635BFF" stroke-width="1"/>
    <text x="60" y="35" font-family="sans-serif" font-size="12" font-weight="600" fill="#1E293B" text-anchor="middle">Stripe</text>
  </g>

  <!-- Paystack -->
  <g transform="translate(550, 120)">
    <rect x="0" y="0" width="120" height="60" rx="8" fill="white" stroke="#00C3F7" stroke-width="1"/>
    <text x="60" y="35" font-family="sans-serif" font-size="12" font-weight="600" fill="#1E293B" text-anchor="middle">Paystack</text>
  </g>

  <!-- Hubtel -->
  <g transform="translate(550, 200)">
    <rect x="0" y="0" width="120" height="60" rx="8" fill="white" stroke="#00A651" stroke-width="1"/>
    <text x="60" y="35" font-family="sans-serif" font-size="12" font-weight="600" fill="#1E293B" text-anchor="middle">Hubtel</text>
  </g>

  <!-- Keys Icons -->
  <g transform="translate(480, 100)">
    <circle cx="15" cy="15" r="12" fill="#FEF3C7" stroke="#F59E0B" stroke-width="1"/>
    <path d="M15 9 V21 M9 15 H21" stroke="#D97706" stroke-width="2" stroke-linecap="round"/> <!-- Plus sign simplified key -->
  </g>
  <g transform="translate(480, 170)">
    <circle cx="15" cy="15" r="12" fill="#FEF3C7" stroke="#F59E0B" stroke-width="1"/>
    <path d="M15 9 V21 M9 15 H21" stroke="#D97706" stroke-width="2" stroke-linecap="round"/>
  </g>

</svg>








