<svg width="800" height="300" viewBox="0 0 800 300" fill="none" xmlns="http://www.w3.org/2000/svg">
  <!-- Background -->
  <rect width="800" height="300" rx="12" fill="#F8FAFC" />
  <rect x="1" y="1" width="798" height="298" rx="11" stroke="#E2E8F0" stroke-width="2"/>
  
  <!-- Grid -->
  <defs>
    <pattern id="grid" width="20" height="20" patternUnits="userSpaceOnUse">
      <circle cx="2" cy="2" r="1" fill="#CBD5E1" fill-opacity="0.5"/>
    </pattern>
  </defs>
  <rect width="800" height="300" fill="url(#grid)" />

  <!-- Reevit Cloud (Left) -->
  <g transform="translate(120, 150)">
    <!-- Cloud Shape -->
    <path d="M-45 10 Q-45 -30 0 -30 Q 30 -30 45 0 Q 70 0 70 30 Q 70 60 30 60 H -25 Q -60 60 -60 30 Q -60 10 -45 10" fill="white" stroke="#8B5CF6" stroke-width="2"/>
    <text x="5" y="25" font-family="sans-serif" font-size="14" font-weight="bold" fill="#1E293B" text-anchor="middle">Reevit</text>
  </g>

  <!-- Your Server (Right) -->
  <g transform="translate(620, 150)">
    <rect x="-70" y="-40" width="140" height="80" rx="8" fill="white" stroke="#1E293B" stroke-width="2"/>
    <text x="0" y="-10" font-family="sans-serif" font-size="14" font-weight="bold" fill="#1E293B" text-anchor="middle">Your Server</text>
    
    <!-- Code Lines representation -->
    <rect x="-50" y="10" width="100" height="6" rx="3" fill="#E2E8F0"/>
    <rect x="-50" y="24" width="70" height="6" rx="3" fill="#E2E8F0"/>
  </g>

  <!-- Connection Arrow -->
  <path d="M220 150 L520 150" stroke="#94A3B8" stroke-width="2" marker-end="url(#arrow)"/>
  
  <!-- POST Request Badge -->
  <g transform="translate(370, 150)">
    <rect x="-60" y="-20" width="120" height="40" rx="20" fill="white" stroke="#3B82F6" stroke-width="1.5"/>
    <text x="0" y="5" font-family="sans-serif" font-size="12" font-weight="600" fill="#2563EB" text-anchor="middle">POST /webhooks</text>
  </g>

  <!-- Security Badge -->
  <g transform="translate(370, 210)">
    <path d="M0 0 L0 12 Q 0 28 16 36 Q 32 28 32 12 L 32 0 Z" fill="#10B981" transform="translate(-16, -18)"/>
    <path d="M-4 2 L 4 10 L 12 -6" stroke="white" stroke-width="2.5" fill="none" stroke-linecap="round" stroke-linejoin="round"/>
    <text x="0" y="30" font-family="sans-serif" font-size="11" fill="#059669" text-anchor="middle">Signed Signature</text>
  </g>

  <!-- Retry Loop -->
  <path d="M620 200 C 620 260 500 260 500 200" stroke="#F59E0B" stroke-width="2" stroke-dasharray="4 4" fill="none" marker-end="url(#arrow-orange)"/>
  <text x="560" y="265" font-family="sans-serif" font-size="11" fill="#D97706" text-anchor="middle">Auto-Retry on 5xx</text>

  <!-- Arrows Definitions -->
  <defs>
    <marker id="arrow" markerWidth="10" markerHeight="10" refX="9" refY="3" orient="auto" markerUnits="strokeWidth">
      <path d="M0,0 L0,6 L9,3 z" fill="#94A3B8" />
    </marker>
    <marker id="arrow-orange" markerWidth="10" markerHeight="10" refX="9" refY="3" orient="auto" markerUnits="strokeWidth">
      <path d="M0,0 L0,6 L9,3 z" fill="#F59E0B" />
    </marker>
  </defs>

</svg>
